<svg width="137" height="32" viewBox="0 0 137 32" fill="none" xmlns="http://www.w3.org/2000/svg">
<rect width="137" height="32" rx="16" fill="#F6F6F6"/>
<rect x="12" y="6" width="20" height="20" rx="10" fill="#111111"/>
<path d="M16 21.84H28V9.84H16V21.84Z" fill="white"/>
<path d="M50.176 16.4091C50.176 17.4962 49.9771 18.4309 49.5794 19.2131C49.1816 19.992 48.6364 20.5919 47.9437 21.0128C47.2543 21.4304 46.4705 21.6392 45.5922 21.6392C44.7105 21.6392 43.9234 21.4304 43.2306 21.0128C42.5413 20.5919 41.9977 19.9903 41.6 19.2081C41.2022 18.4259 41.0034 17.4929 41.0034 16.4091C41.0034 15.322 41.2022 14.389 41.6 13.6101C41.9977 12.8279 42.5413 12.228 43.2306 11.8104C43.9234 11.3894 44.7105 11.179 45.5922 11.179C46.4705 11.179 47.2543 11.3894 47.9437 11.8104C48.6364 12.228 49.1816 12.8279 49.5794 13.6101C49.9771 14.389 50.176 15.322 50.176 16.4091ZM48.6547 16.4091C48.6547 15.5805 48.5204 14.8828 48.252 14.3161C47.9868 13.746 47.6222 13.3151 47.1582 13.0234C46.6975 12.7285 46.1755 12.581 45.5922 12.581C45.0055 12.581 44.4818 12.7285 44.0211 13.0234C43.5604 13.3151 43.1958 13.746 42.9274 14.3161C42.6622 14.8828 42.5297 15.5805 42.5297 16.4091C42.5297 17.2377 42.6622 17.937 42.9274 18.5071C43.1958 19.0739 43.5604 19.5047 44.0211 19.7997C44.4818 20.0914 45.0055 20.2372 45.5922 20.2372C46.1755 20.2372 46.6975 20.0914 47.1582 19.7997C47.6222 19.5047 47.9868 19.0739 48.252 18.5071C48.5204 17.937 48.6547 17.2377 48.6547 16.4091ZM56.8093 18.3331V13.8636H58.3008V21.5H56.8391V20.1776H56.7596C56.5839 20.5852 56.3022 20.925 55.9144 21.1967C55.5299 21.4652 55.051 21.5994 54.4776 21.5994C53.9871 21.5994 53.5529 21.4917 53.1751 21.2763C52.8005 21.0575 52.5056 20.7344 52.2901 20.3068C52.078 19.8793 51.9719 19.3506 51.9719 18.7209V13.8636H53.4585V18.5419C53.4585 19.0623 53.6026 19.4766 53.891 19.7848C54.1793 20.093 54.5539 20.2472 55.0146 20.2472C55.293 20.2472 55.5697 20.1776 55.8448 20.0384C56.1232 19.8991 56.3536 19.6887 56.5359 19.407C56.7215 19.1252 56.8126 18.7673 56.8093 18.3331ZM60.2981 21.5V13.8636H61.7349V15.0767H61.8145C61.9537 14.6657 62.1989 14.3426 62.5502 14.1072C62.9049 13.8686 63.3059 13.7493 63.7534 13.7493C63.8462 13.7493 63.9556 13.7526 64.0815 13.7592C64.2108 13.7659 64.3118 13.7741 64.3848 13.7841V15.206C64.3251 15.1894 64.219 15.1712 64.0666 15.1513C63.9141 15.1281 63.7617 15.1165 63.6092 15.1165C63.2579 15.1165 62.9447 15.1911 62.6696 15.3402C62.3978 15.486 62.1824 15.6899 62.0233 15.9517C61.8642 16.2102 61.7846 16.5052 61.7846 16.8366V21.5H60.2981ZM75.0985 15.728L73.7512 15.9666C73.6949 15.7943 73.6054 15.6302 73.4828 15.4744C73.3635 15.3187 73.2011 15.1911 72.9956 15.0916C72.7901 14.9922 72.5332 14.9425 72.225 14.9425C71.804 14.9425 71.4527 15.0369 71.171 15.2259C70.8893 15.4115 70.7484 15.6518 70.7484 15.9467C70.7484 16.2019 70.8429 16.4074 71.0318 16.5632C71.2207 16.719 71.5256 16.8466 71.9466 16.946L73.1596 17.2244C73.8623 17.3868 74.3859 17.6371 74.7306 17.9751C75.0753 18.3132 75.2477 18.7524 75.2477 19.2926C75.2477 19.75 75.1151 20.1577 74.85 20.5156C74.5881 20.8703 74.2219 21.1487 73.7512 21.3509C73.2839 21.553 72.742 21.6541 72.1255 21.6541C71.2704 21.6541 70.5727 21.4718 70.0325 21.1072C69.4922 20.7393 69.1608 20.2173 69.0382 19.5412L70.475 19.3224C70.5645 19.697 70.7484 19.9804 71.0268 20.1726C71.3052 20.3615 71.6681 20.456 72.1156 20.456C72.6028 20.456 72.9922 20.3549 73.2839 20.1527C73.5756 19.9472 73.7214 19.697 73.7214 19.402C73.7214 19.1634 73.6319 18.9628 73.4529 18.8004C73.2773 18.638 73.0072 18.5154 72.6426 18.4325L71.35 18.1491C70.6374 17.9867 70.1104 17.7282 69.769 17.3736C69.4309 17.0189 69.2619 16.5698 69.2619 16.0263C69.2619 15.5755 69.3878 15.1811 69.6397 14.843C69.8916 14.505 70.2396 14.2415 70.6838 14.0526C71.1279 13.8603 71.6367 13.7642 72.21 13.7642C73.0353 13.7642 73.685 13.9432 74.1589 14.3011C74.6329 14.6558 74.9461 15.1314 75.0985 15.728ZM80.1733 21.6541C79.4209 21.6541 78.773 21.4934 78.2294 21.1719C77.6892 20.8471 77.2715 20.3913 76.9766 19.8047C76.6849 19.2147 76.5391 18.5237 76.5391 17.7315C76.5391 16.9493 76.6849 16.2599 76.9766 15.6634C77.2715 15.0668 77.6825 14.6011 78.2095 14.2663C78.7398 13.9316 79.3596 13.7642 80.0689 13.7642C80.4998 13.7642 80.9174 13.8355 81.3217 13.978C81.7261 14.1205 82.089 14.3442 82.4105 14.6491C82.732 14.9541 82.9856 15.3501 83.1712 15.8374C83.3568 16.3213 83.4496 16.9096 83.4496 17.6023V18.1293H77.3793V17.0156H81.9929C81.9929 16.6245 81.9134 16.2782 81.7543 15.9766C81.5952 15.6716 81.3714 15.4313 81.0831 15.2557C80.7981 15.08 80.4633 14.9922 80.0788 14.9922C79.6612 14.9922 79.2966 15.0949 78.9851 15.3004C78.6768 15.5026 78.4382 15.7678 78.2692 16.0959C78.1035 16.4207 78.0206 16.7737 78.0206 17.1548V18.0249C78.0206 18.5353 78.1101 18.9695 78.2891 19.3274C78.4714 19.6854 78.7249 19.9588 79.0497 20.1477C79.3745 20.3333 79.754 20.4261 80.1882 20.4261C80.4699 20.4261 80.7268 20.3864 80.9588 20.3068C81.1908 20.224 81.3913 20.1013 81.5604 19.9389C81.7294 19.7765 81.8587 19.576 81.9482 19.3374L83.3551 19.5909C83.2424 20.0052 83.0402 20.3681 82.7486 20.6797C82.4602 20.9879 82.0973 21.2282 81.6598 21.4006C81.2256 21.5696 80.7301 21.6541 80.1733 21.6541ZM85.0989 21.5V13.8636H86.5357V15.0767H86.6152C86.7544 14.6657 86.9997 14.3426 87.351 14.1072C87.7057 13.8686 88.1067 13.7493 88.5542 13.7493C88.647 13.7493 88.7563 13.7526 88.8823 13.7592C89.0115 13.7659 89.1126 13.7741 89.1855 13.7841V15.206C89.1259 15.1894 89.0198 15.1712 88.8674 15.1513C88.7149 15.1281 88.5624 15.1165 88.41 15.1165C88.0587 15.1165 87.7454 15.1911 87.4703 15.3402C87.1986 15.486 86.9831 15.6899 86.824 15.9517C86.665 16.2102 86.5854 16.5052 86.5854 16.8366V21.5H85.0989ZM97.237 13.8636L94.4679 21.5H92.877L90.1028 13.8636H91.6987L93.6326 19.7401H93.7122L95.6412 13.8636H97.237ZM98.6341 21.5V13.8636H100.121V21.5H98.6341ZM99.3848 12.6854C99.1262 12.6854 98.9042 12.5992 98.7186 12.4268C98.5363 12.2512 98.4451 12.0424 98.4451 11.8004C98.4451 11.5552 98.5363 11.3464 98.7186 11.174C98.9042 10.9983 99.1262 10.9105 99.3848 10.9105C99.6433 10.9105 99.8637 10.9983 100.046 11.174C100.232 11.3464 100.324 11.5552 100.324 11.8004C100.324 12.0424 100.232 12.2512 100.046 12.4268C99.8637 12.5992 99.6433 12.6854 99.3848 12.6854ZM105.337 21.6541C104.598 21.6541 103.962 21.4867 103.428 21.152C102.898 20.8139 102.49 20.3482 102.205 19.755C101.92 19.1617 101.777 18.4822 101.777 17.7166C101.777 16.9411 101.923 16.2566 102.215 15.6634C102.507 15.0668 102.917 14.6011 103.448 14.2663C103.978 13.9316 104.603 13.7642 105.322 13.7642C105.902 13.7642 106.419 13.8719 106.873 14.0874C107.327 14.2995 107.694 14.5978 107.972 14.9822C108.254 15.3667 108.421 15.8158 108.474 16.3295H107.027C106.948 15.9716 106.766 15.6634 106.48 15.4048C106.199 15.1463 105.821 15.017 105.347 15.017C104.933 15.017 104.57 15.1264 104.258 15.3452C103.95 15.5606 103.71 15.8688 103.537 16.2699C103.365 16.6676 103.279 17.1383 103.279 17.6818C103.279 18.2386 103.363 18.7192 103.532 19.1236C103.701 19.5279 103.94 19.8411 104.248 20.0632C104.56 20.2853 104.926 20.3963 105.347 20.3963C105.629 20.3963 105.884 20.3449 106.113 20.2422C106.345 20.1361 106.538 19.9853 106.694 19.7898C106.853 19.5942 106.964 19.3589 107.027 19.0838H108.474C108.421 19.5777 108.26 20.0185 107.992 20.4062C107.723 20.794 107.364 21.099 106.913 21.321C106.466 21.5431 105.94 21.6541 105.337 21.6541ZM113.355 21.6541C112.603 21.6541 111.955 21.4934 111.411 21.1719C110.871 20.8471 110.453 20.3913 110.158 19.8047C109.867 19.2147 109.721 18.5237 109.721 17.7315C109.721 16.9493 109.867 16.2599 110.158 15.6634C110.453 15.0668 110.864 14.6011 111.391 14.2663C111.921 13.9316 112.541 13.7642 113.251 13.7642C113.681 13.7642 114.099 13.8355 114.503 13.978C114.908 14.1205 115.271 14.3442 115.592 14.6491C115.914 14.9541 116.167 15.3501 116.353 15.8374C116.538 16.3213 116.631 16.9096 116.631 17.6023V18.1293H110.561V17.0156H115.175C115.175 16.6245 115.095 16.2782 114.936 15.9766C114.777 15.6716 114.553 15.4313 114.265 15.2557C113.98 15.08 113.645 14.9922 113.26 14.9922C112.843 14.9922 112.478 15.0949 112.167 15.3004C111.858 15.5026 111.62 15.7678 111.451 16.0959C111.285 16.4207 111.202 16.7737 111.202 17.1548V18.0249C111.202 18.5353 111.292 18.9695 111.471 19.3274C111.653 19.6854 111.907 19.9588 112.231 20.1477C112.556 20.3333 112.936 20.4261 113.37 20.4261C113.652 20.4261 113.908 20.3864 114.14 20.3068C114.372 20.224 114.573 20.1013 114.742 19.9389C114.911 19.7765 115.04 19.576 115.13 19.3374L116.537 19.5909C116.424 20.0052 116.222 20.3681 115.93 20.6797C115.642 20.9879 115.279 21.2282 114.841 21.4006C114.407 21.5696 113.912 21.6541 113.355 21.6541ZM124.003 15.728L122.656 15.9666C122.599 15.7943 122.51 15.6302 122.387 15.4744C122.268 15.3187 122.105 15.1911 121.9 15.0916C121.694 14.9922 121.438 14.9425 121.129 14.9425C120.708 14.9425 120.357 15.0369 120.075 15.2259C119.794 15.4115 119.653 15.6518 119.653 15.9467C119.653 16.2019 119.747 16.4074 119.936 16.5632C120.125 16.719 120.43 16.8466 120.851 16.946L122.064 17.2244C122.767 17.3868 123.29 17.6371 123.635 17.9751C123.98 18.3132 124.152 18.7524 124.152 19.2926C124.152 19.75 124.019 20.1577 123.754 20.5156C123.492 20.8703 123.126 21.1487 122.656 21.3509C122.188 21.553 121.646 21.6541 121.03 21.6541C120.175 21.6541 119.477 21.4718 118.937 21.1072C118.397 20.7393 118.065 20.2173 117.942 19.5412L119.379 19.3224C119.469 19.697 119.653 19.9804 119.931 20.1726C120.21 20.3615 120.572 20.456 121.02 20.456C121.507 20.456 121.897 20.3549 122.188 20.1527C122.48 19.9472 122.626 19.697 122.626 19.402C122.626 19.1634 122.536 18.9628 122.357 18.8004C122.182 18.638 121.911 18.5154 121.547 18.4325L120.254 18.1491C119.542 17.9867 119.015 17.7282 118.673 17.3736C118.335 17.0189 118.166 16.5698 118.166 16.0263C118.166 15.5755 118.292 15.1811 118.544 14.843C118.796 14.505 119.144 14.2415 119.588 14.0526C120.032 13.8603 120.541 13.7642 121.114 13.7642C121.94 13.7642 122.589 13.9432 123.063 14.3011C123.537 14.6558 123.85 15.1314 124.003 15.728Z" fill="#111111"/>
</svg>
