<svg width="157" height="32" viewBox="0 0 157 32" fill="none" xmlns="http://www.w3.org/2000/svg">
<rect width="157" height="32" rx="16" fill="#F6F6F6"/>
<rect x="12" y="6" width="20" height="20" rx="10" fill="#111111"/>
<path d="M16 21.84H28V9.84H16V21.84Z" fill="white"/>
<path d="M50.4553 16.4091C50.4553 17.4962 50.2564 18.4309 49.8587 19.2131C49.4609 19.992 48.9157 20.5919 48.223 21.0128C47.5336 21.4304 46.7498 21.6392 45.8714 21.6392C44.9898 21.6392 44.2027 21.4304 43.5099 21.0128C42.8205 20.5919 42.277 19.9903 41.8793 19.2081C41.4815 18.4259 41.2827 17.4929 41.2827 16.4091C41.2827 15.322 41.4815 14.389 41.8793 13.6101C42.277 12.8279 42.8205 12.228 43.5099 11.8104C44.2027 11.3894 44.9898 11.179 45.8714 11.179C46.7498 11.179 47.5336 11.3894 48.223 11.8104C48.9157 12.228 49.4609 12.8279 49.8587 13.6101C50.2564 14.389 50.4553 15.322 50.4553 16.4091ZM48.9339 16.4091C48.9339 15.5805 48.7997 14.8828 48.5312 14.3161C48.2661 13.746 47.9015 13.3151 47.4375 13.0234C46.9768 12.7285 46.4548 12.581 45.8714 12.581C45.2848 12.581 44.7611 12.7285 44.3004 13.0234C43.8397 13.3151 43.4751 13.746 43.2067 14.3161C42.9415 14.8828 42.8089 15.5805 42.8089 16.4091C42.8089 17.2377 42.9415 17.937 43.2067 18.5071C43.4751 19.0739 43.8397 19.5047 44.3004 19.7997C44.7611 20.0914 45.2848 20.2372 45.8714 20.2372C46.4548 20.2372 46.9768 20.0914 47.4375 19.7997C47.9015 19.5047 48.2661 19.0739 48.5312 18.5071C48.7997 17.937 48.9339 17.2377 48.9339 16.4091ZM57.0886 18.3331V13.8636H58.5801V21.5H57.1184V20.1776H57.0389C56.8632 20.5852 56.5815 20.925 56.1937 21.1967C55.8092 21.4652 55.3303 21.5994 54.7569 21.5994C54.2664 21.5994 53.8322 21.4917 53.4544 21.2763C53.0798 21.0575 52.7849 20.7344 52.5694 20.3068C52.3573 19.8793 52.2512 19.3506 52.2512 18.7209V13.8636H53.7377V18.5419C53.7377 19.0623 53.8819 19.4766 54.1703 19.7848C54.4586 20.093 54.8332 20.2472 55.2939 20.2472C55.5723 20.2472 55.849 20.1776 56.1241 20.0384C56.4025 19.8991 56.6329 19.6887 56.8152 19.407C57.0008 19.1252 57.0919 18.7673 57.0886 18.3331ZM60.5774 21.5V13.8636H62.0142V15.0767H62.0938C62.233 14.6657 62.4782 14.3426 62.8295 14.1072C63.1842 13.8686 63.5852 13.7493 64.0327 13.7493C64.1255 13.7493 64.2348 13.7526 64.3608 13.7592C64.4901 13.7659 64.5911 13.7741 64.6641 13.7841V15.206C64.6044 15.1894 64.4983 15.1712 64.3459 15.1513C64.1934 15.1281 64.041 15.1165 63.8885 15.1165C63.5372 15.1165 63.224 15.1911 62.9489 15.3402C62.6771 15.486 62.4616 15.6899 62.3026 15.9517C62.1435 16.2102 62.0639 16.5052 62.0639 16.8366V21.5H60.5774ZM72.5142 21.6491C71.8977 21.6491 71.3475 21.4917 70.8636 21.1768C70.383 20.8587 70.0052 20.4062 69.7301 19.8196C69.4583 19.2296 69.3224 18.522 69.3224 17.6967C69.3224 16.8714 69.46 16.1655 69.7351 15.5788C70.0135 14.9922 70.3946 14.5431 70.8786 14.2315C71.3625 13.92 71.911 13.7642 72.5241 13.7642C72.9981 13.7642 73.3793 13.8438 73.6676 14.0028C73.9593 14.1586 74.1847 14.3409 74.3438 14.5497C74.5062 14.7585 74.6321 14.9425 74.7216 15.1016H74.8111V11.3182H76.2976V21.5H74.8459V20.3118H74.7216C74.6321 20.4742 74.5028 20.6598 74.3338 20.8686C74.1681 21.0774 73.9394 21.2597 73.6477 21.4155C73.3561 21.5713 72.9782 21.6491 72.5142 21.6491ZM72.8423 20.3814C73.2699 20.3814 73.6312 20.2687 73.9261 20.0433C74.2244 19.8146 74.4498 19.4981 74.6023 19.0938C74.758 18.6894 74.8359 18.2187 74.8359 17.6818C74.8359 17.1515 74.7597 16.6875 74.6072 16.2898C74.4548 15.892 74.2311 15.5821 73.9361 15.3601C73.6411 15.138 73.2765 15.027 72.8423 15.027C72.3949 15.027 72.022 15.143 71.7237 15.375C71.4254 15.607 71.2 15.9235 71.0476 16.3246C70.8984 16.7256 70.8239 17.178 70.8239 17.6818C70.8239 18.1922 70.9001 18.6513 71.0526 19.0589C71.205 19.4666 71.4304 19.7898 71.7287 20.0284C72.0303 20.2637 72.4015 20.3814 72.8423 20.3814ZM78.4192 21.5V13.8636H79.9057V21.5H78.4192ZM79.1699 12.6854C78.9114 12.6854 78.6893 12.5992 78.5037 12.4268C78.3214 12.2512 78.2303 12.0424 78.2303 11.8004C78.2303 11.5552 78.3214 11.3464 78.5037 11.174C78.6893 10.9983 78.9114 10.9105 79.1699 10.9105C79.4284 10.9105 79.6489 10.9983 79.8311 11.174C80.0167 11.3464 80.1096 11.5552 80.1096 11.8004C80.1096 12.0424 80.0167 12.2512 79.8311 12.4268C79.6489 12.5992 79.4284 12.6854 79.1699 12.6854ZM85.5398 13.8636V15.0568H81.2244V13.8636H85.5398ZM82.4077 21.5V12.9787C82.4077 12.5014 82.5121 12.1053 82.7209 11.7905C82.9297 11.4723 83.2064 11.2353 83.5511 11.0795C83.8958 10.9205 84.2704 10.8409 84.6747 10.8409C84.973 10.8409 85.2282 10.8658 85.4403 10.9155C85.6525 10.9619 85.8099 11.005 85.9126 11.0447L85.5646 12.2479C85.495 12.228 85.4055 12.2048 85.2962 12.1783C85.1868 12.1484 85.0542 12.1335 84.8984 12.1335C84.5372 12.1335 84.2786 12.223 84.1229 12.402C83.9704 12.581 83.8942 12.8395 83.8942 13.1776V21.5H82.4077ZM90.7077 13.8636V15.0568H86.3924V13.8636H90.7077ZM87.5756 21.5V12.9787C87.5756 12.5014 87.68 12.1053 87.8888 11.7905C88.0977 11.4723 88.3744 11.2353 88.7191 11.0795C89.0638 10.9205 89.4383 10.8409 89.8427 10.8409C90.141 10.8409 90.3962 10.8658 90.6083 10.9155C90.8204 10.9619 90.9779 11.005 91.0806 11.0447L90.7326 12.2479C90.663 12.228 90.5735 12.2048 90.4641 12.1783C90.3548 12.1484 90.2222 12.1335 90.0664 12.1335C89.7051 12.1335 89.4466 12.223 89.2908 12.402C89.1384 12.581 89.0621 12.8395 89.0621 13.1776V21.5H87.5756ZM95.2319 21.6541C94.4795 21.6541 93.8316 21.4934 93.288 21.1719C92.7478 20.8471 92.3301 20.3913 92.0352 19.8047C91.7435 19.2147 91.5977 18.5237 91.5977 17.7315C91.5977 16.9493 91.7435 16.2599 92.0352 15.6634C92.3301 15.0668 92.7411 14.6011 93.2681 14.2663C93.7984 13.9316 94.4182 13.7642 95.1275 13.7642C95.5584 13.7642 95.976 13.8355 96.3803 13.978C96.7847 14.1205 97.1476 14.3442 97.4691 14.6491C97.7906 14.9541 98.0442 15.3501 98.2298 15.8374C98.4154 16.3213 98.5082 16.9096 98.5082 17.6023V18.1293H92.4379V17.0156H97.0515C97.0515 16.6245 96.9719 16.2782 96.8129 15.9766C96.6538 15.6716 96.43 15.4313 96.1417 15.2557C95.8567 15.08 95.5219 14.9922 95.1374 14.9922C94.7198 14.9922 94.3552 15.0949 94.0437 15.3004C93.7354 15.5026 93.4968 15.7678 93.3278 16.0959C93.1621 16.4207 93.0792 16.7737 93.0792 17.1548V18.0249C93.0792 18.5353 93.1687 18.9695 93.3477 19.3274C93.5299 19.6854 93.7835 19.9588 94.1083 20.1477C94.4331 20.3333 94.8126 20.4261 95.2468 20.4261C95.5285 20.4261 95.7854 20.3864 96.0174 20.3068C96.2494 20.224 96.4499 20.1013 96.619 19.9389C96.788 19.7765 96.9173 19.576 97.0067 19.3374L98.4137 19.5909C98.301 20.0052 98.0988 20.3681 97.8072 20.6797C97.5188 20.9879 97.1559 21.2282 96.7184 21.4006C96.2842 21.5696 95.7887 21.6541 95.2319 21.6541ZM100.157 21.5V13.8636H101.594V15.0767H101.674C101.813 14.6657 102.058 14.3426 102.41 14.1072C102.764 13.8686 103.165 13.7493 103.613 13.7493C103.706 13.7493 103.815 13.7526 103.941 13.7592C104.07 13.7659 104.171 13.7741 104.244 13.7841V15.206C104.184 15.1894 104.078 15.1712 103.926 15.1513C103.773 15.1281 103.621 15.1165 103.469 15.1165C103.117 15.1165 102.804 15.1911 102.529 15.3402C102.257 15.486 102.042 15.6899 101.883 15.9517C101.724 16.2102 101.644 16.5052 101.644 16.8366V21.5H100.157ZM108.548 21.6541C107.796 21.6541 107.148 21.4934 106.604 21.1719C106.064 20.8471 105.647 20.3913 105.352 19.8047C105.06 19.2147 104.914 18.5237 104.914 17.7315C104.914 16.9493 105.06 16.2599 105.352 15.6634C105.647 15.0668 106.058 14.6011 106.585 14.2663C107.115 13.9316 107.735 13.7642 108.444 13.7642C108.875 13.7642 109.292 13.8355 109.697 13.978C110.101 14.1205 110.464 14.3442 110.786 14.6491C111.107 14.9541 111.361 15.3501 111.546 15.8374C111.732 16.3213 111.825 16.9096 111.825 17.6023V18.1293H105.754V17.0156H110.368C110.368 16.6245 110.288 16.2782 110.129 15.9766C109.97 15.6716 109.746 15.4313 109.458 15.2557C109.173 15.08 108.838 14.9922 108.454 14.9922C108.036 14.9922 107.672 15.0949 107.36 15.3004C107.052 15.5026 106.813 15.7678 106.644 16.0959C106.478 16.4207 106.396 16.7737 106.396 17.1548V18.0249C106.396 18.5353 106.485 18.9695 106.664 19.3274C106.846 19.6854 107.1 19.9588 107.425 20.1477C107.75 20.3333 108.129 20.4261 108.563 20.4261C108.845 20.4261 109.102 20.3864 109.334 20.3068C109.566 20.224 109.766 20.1013 109.935 19.9389C110.104 19.7765 110.234 19.576 110.323 19.3374L111.73 19.5909C111.617 20.0052 111.415 20.3681 111.124 20.6797C110.835 20.9879 110.472 21.2282 110.035 21.4006C109.601 21.5696 109.105 21.6541 108.548 21.6541ZM114.96 16.9659V21.5H113.474V13.8636H114.901V15.1065H114.995C115.171 14.7022 115.446 14.3774 115.82 14.1321C116.198 13.8868 116.674 13.7642 117.247 13.7642C117.768 13.7642 118.223 13.8736 118.615 14.0923C119.006 14.3078 119.309 14.6293 119.524 15.0568C119.74 15.4844 119.847 16.013 119.847 16.6428V21.5H118.361V16.8217C118.361 16.2682 118.217 15.8357 117.928 15.5241C117.64 15.2093 117.244 15.0518 116.74 15.0518C116.396 15.0518 116.089 15.1264 115.82 15.2756C115.555 15.4247 115.345 15.6435 115.189 15.9318C115.037 16.2169 114.96 16.5616 114.96 16.9659ZM125.058 21.6541C124.319 21.6541 123.682 21.4867 123.149 21.152C122.618 20.8139 122.211 20.3482 121.926 19.755C121.641 19.1617 121.498 18.4822 121.498 17.7166C121.498 16.9411 121.644 16.2566 121.936 15.6634C122.227 15.0668 122.638 14.6011 123.169 14.2663C123.699 13.9316 124.324 13.7642 125.043 13.7642C125.623 13.7642 126.14 13.8719 126.594 14.0874C127.048 14.2995 127.414 14.5978 127.693 14.9822C127.974 15.3667 128.142 15.8158 128.195 16.3295H126.748C126.669 15.9716 126.486 15.6634 126.201 15.4048C125.919 15.1463 125.542 15.017 125.068 15.017C124.653 15.017 124.29 15.1264 123.979 15.3452C123.671 15.5606 123.43 15.8688 123.258 16.2699C123.086 16.6676 122.999 17.1383 122.999 17.6818C122.999 18.2386 123.084 18.7192 123.253 19.1236C123.422 19.5279 123.661 19.8411 123.969 20.0632C124.28 20.2853 124.647 20.3963 125.068 20.3963C125.349 20.3963 125.605 20.3449 125.833 20.2422C126.065 20.1361 126.259 19.9853 126.415 19.7898C126.574 19.5942 126.685 19.3589 126.748 19.0838H128.195C128.142 19.5777 127.981 20.0185 127.713 20.4062C127.444 20.794 127.084 21.099 126.634 21.321C126.186 21.5431 125.661 21.6541 125.058 21.6541ZM133.076 21.6541C132.323 21.6541 131.675 21.4934 131.132 21.1719C130.592 20.8471 130.174 20.3913 129.879 19.8047C129.587 19.2147 129.441 18.5237 129.441 17.7315C129.441 16.9493 129.587 16.2599 129.879 15.6634C130.174 15.0668 130.585 14.6011 131.112 14.2663C131.642 13.9316 132.262 13.7642 132.971 13.7642C133.402 13.7642 133.82 13.8355 134.224 13.978C134.628 14.1205 134.991 14.3442 135.313 14.6491C135.634 14.9541 135.888 15.3501 136.074 15.8374C136.259 16.3213 136.352 16.9096 136.352 17.6023V18.1293H130.282V17.0156H134.895C134.895 16.6245 134.816 16.2782 134.657 15.9766C134.498 15.6716 134.274 15.4313 133.985 15.2557C133.7 15.08 133.366 14.9922 132.981 14.9922C132.564 14.9922 132.199 15.0949 131.887 15.3004C131.579 15.5026 131.341 15.7678 131.172 16.0959C131.006 16.4207 130.923 16.7737 130.923 17.1548V18.0249C130.923 18.5353 131.012 18.9695 131.191 19.3274C131.374 19.6854 131.627 19.9588 131.952 20.1477C132.277 20.3333 132.656 20.4261 133.091 20.4261C133.372 20.4261 133.629 20.3864 133.861 20.3068C134.093 20.224 134.294 20.1013 134.463 19.9389C134.632 19.7765 134.761 19.576 134.85 19.3374L136.257 19.5909C136.145 20.0052 135.943 20.3681 135.651 20.6797C135.363 20.9879 135 21.2282 134.562 21.4006C134.128 21.5696 133.632 21.6541 133.076 21.6541ZM143.724 15.728L142.376 15.9666C142.32 15.7943 142.23 15.6302 142.108 15.4744C141.988 15.3187 141.826 15.1911 141.621 15.0916C141.415 14.9922 141.158 14.9425 140.85 14.9425C140.429 14.9425 140.078 15.0369 139.796 15.2259C139.514 15.4115 139.373 15.6518 139.373 15.9467C139.373 16.2019 139.468 16.4074 139.657 16.5632C139.846 16.719 140.151 16.8466 140.572 16.946L141.785 17.2244C142.487 17.3868 143.011 17.6371 143.356 17.9751C143.7 18.3132 143.873 18.7524 143.873 19.2926C143.873 19.75 143.74 20.1577 143.475 20.5156C143.213 20.8703 142.847 21.1487 142.376 21.3509C141.909 21.553 141.367 21.6541 140.751 21.6541C139.895 21.6541 139.198 21.4718 138.657 21.1072C138.117 20.7393 137.786 20.2173 137.663 19.5412L139.1 19.3224C139.189 19.697 139.373 19.9804 139.652 20.1726C139.93 20.3615 140.293 20.456 140.741 20.456C141.228 20.456 141.617 20.3549 141.909 20.1527C142.201 19.9472 142.346 19.697 142.346 19.402C142.346 19.1634 142.257 18.9628 142.078 18.8004C141.902 18.638 141.632 18.5154 141.268 18.4325L139.975 18.1491C139.262 17.9867 138.735 17.7282 138.394 17.3736C138.056 17.0189 137.887 16.5698 137.887 16.0263C137.887 15.5755 138.013 15.1811 138.265 14.843C138.517 14.505 138.865 14.2415 139.309 14.0526C139.753 13.8603 140.262 13.7642 140.835 13.7642C141.66 13.7642 142.31 13.9432 142.784 14.3011C143.258 14.6558 143.571 15.1314 143.724 15.728Z" fill="#111111"/>
</svg>
