<svg width="241" height="33" viewBox="0 0 241 33" fill="none" xmlns="http://www.w3.org/2000/svg">
<rect y="0.5" width="241" height="32" rx="16" fill="#F6F6F6"/>
<rect x="12" y="6.5" width="20" height="20" rx="10" fill="#111111"/>
<path d="M20.9091 18.3835V18.2386C20.9119 17.7415 20.956 17.3452 21.0412 17.0497C21.1293 16.7543 21.2571 16.5156 21.4247 16.3338C21.5923 16.152 21.794 15.9872 22.0298 15.8395C22.206 15.7259 22.3636 15.608 22.5028 15.4858C22.642 15.3636 22.7528 15.2287 22.8352 15.081C22.9176 14.9304 22.9588 14.7628 22.9588 14.5781C22.9588 14.3821 22.9119 14.2102 22.8182 14.0625C22.7244 13.9148 22.598 13.8011 22.4389 13.7216C22.2827 13.642 22.1094 13.6023 21.919 13.6023C21.7344 13.6023 21.5597 13.6435 21.3949 13.7259C21.2301 13.8054 21.0952 13.9247 20.9901 14.0838C20.8849 14.2401 20.8281 14.4347 20.8196 14.6676H19.081C19.0952 14.0994 19.2315 13.6307 19.4901 13.2614C19.7486 12.8892 20.0909 12.6122 20.517 12.4304C20.9432 12.2457 21.4134 12.1534 21.9276 12.1534C22.4929 12.1534 22.9929 12.2472 23.4276 12.4347C23.8622 12.6193 24.2031 12.8878 24.4503 13.2401C24.6974 13.5923 24.821 14.017 24.821 14.5142C24.821 14.8466 24.7656 15.142 24.6548 15.4006C24.5469 15.6562 24.3949 15.8835 24.1989 16.0824C24.0028 16.2784 23.7713 16.456 23.5043 16.6151C23.2798 16.7486 23.0952 16.8878 22.9503 17.0327C22.8082 17.1776 22.7017 17.3452 22.6307 17.5355C22.5625 17.7259 22.527 17.9602 22.5241 18.2386V18.3835H20.9091ZM21.7528 21.1108C21.4688 21.1108 21.2259 21.0114 21.0241 20.8125C20.8253 20.6108 20.7273 20.3693 20.7301 20.0881C20.7273 19.8097 20.8253 19.571 21.0241 19.3722C21.2259 19.1733 21.4688 19.0739 21.7528 19.0739C22.0227 19.0739 22.2599 19.1733 22.4645 19.3722C22.669 19.571 22.7727 19.8097 22.7756 20.0881C22.7727 20.2756 22.723 20.4474 22.6264 20.6037C22.5327 20.7571 22.4091 20.8807 22.2557 20.9744C22.1023 21.0653 21.9347 21.1108 21.7528 21.1108Z" fill="white"/>
<path d="M41.1186 22V11.8182H47.4325V13.1406H42.6548V16.2429H46.9801V17.5604H42.6548V22H41.1186ZM49.1067 22V14.3636H50.5435V15.5767H50.623C50.7623 15.1657 51.0075 14.8426 51.3588 14.6072C51.7135 14.3686 52.1145 14.2493 52.562 14.2493C52.6548 14.2493 52.7641 14.2526 52.8901 14.2592C53.0194 14.2659 53.1204 14.2741 53.1934 14.2841V15.706C53.1337 15.6894 53.0276 15.6712 52.8752 15.6513C52.7227 15.6281 52.5703 15.6165 52.4178 15.6165C52.0665 15.6165 51.7533 15.6911 51.4782 15.8402C51.2064 15.986 50.9909 16.1899 50.8319 16.4517C50.6728 16.7102 50.5932 17.0052 50.5932 17.3366V22H49.1067ZM57.4975 22.1541C56.7451 22.1541 56.0972 21.9934 55.5536 21.6719C55.0134 21.3471 54.5958 20.8913 54.3008 20.3047C54.0091 19.7147 53.8633 19.0237 53.8633 18.2315C53.8633 17.4493 54.0091 16.7599 54.3008 16.1634C54.5958 15.5668 55.0067 15.1011 55.5337 14.7663C56.064 14.4316 56.6838 14.2642 57.3931 14.2642C57.824 14.2642 58.2416 14.3355 58.646 14.478C59.0503 14.6205 59.4132 14.8442 59.7347 15.1491C60.0562 15.4541 60.3098 15.8501 60.4954 16.3374C60.681 16.8213 60.7738 17.4096 60.7738 18.1023V18.6293H54.7035V17.5156H59.3171C59.3171 17.1245 59.2376 16.7782 59.0785 16.4766C58.9194 16.1716 58.6957 15.9313 58.4073 15.7557C58.1223 15.58 57.7875 15.4922 57.4031 15.4922C56.9854 15.4922 56.6209 15.5949 56.3093 15.8004C56.0011 16.0026 55.7624 16.2678 55.5934 16.5959C55.4277 16.9207 55.3448 17.2737 55.3448 17.6548V18.5249C55.3448 19.0353 55.4343 19.4695 55.6133 19.8274C55.7956 20.1854 56.0491 20.4588 56.3739 20.6477C56.6987 20.8333 57.0782 20.9261 57.5124 20.9261C57.7942 20.9261 58.051 20.8864 58.283 20.8068C58.515 20.724 58.7156 20.6013 58.8846 20.4389C59.0536 20.2765 59.1829 20.076 59.2724 19.8374L60.6793 20.0909C60.5666 20.5052 60.3645 20.8681 60.0728 21.1797C59.7844 21.4879 59.4215 21.7282 58.984 21.9006C58.5498 22.0696 58.0543 22.1541 57.4975 22.1541ZM67.5787 24.8636V20.8118H67.4892C67.3997 20.9742 67.2704 21.1598 67.1014 21.3686C66.9357 21.5774 66.707 21.7597 66.4153 21.9155C66.1236 22.0713 65.7458 22.1491 65.2818 22.1491C64.6653 22.1491 64.1151 21.9917 63.6312 21.6768C63.1506 21.3587 62.7728 20.9062 62.4977 20.3196C62.2259 19.7296 62.09 19.022 62.09 18.1967C62.09 17.3714 62.2276 16.6655 62.5027 16.0788C62.7811 15.4922 63.1622 15.0431 63.6461 14.7315C64.13 14.42 64.6786 14.2642 65.2917 14.2642C65.7657 14.2642 66.1468 14.3438 66.4352 14.5028C66.7269 14.6586 66.9522 14.8409 67.1113 15.0497C67.2737 15.2585 67.3997 15.4425 67.4892 15.6016H67.6135V14.3636H69.0652V24.8636H67.5787ZM65.6099 20.8814C66.0375 20.8814 66.3987 20.7687 66.6937 20.5433C66.992 20.3146 67.2174 19.9981 67.3699 19.5938C67.5256 19.1894 67.6035 18.7187 67.6035 18.1818C67.6035 17.6515 67.5273 17.1875 67.3748 16.7898C67.2224 16.392 66.9986 16.0821 66.7037 15.8601C66.4087 15.638 66.0441 15.527 65.6099 15.527C65.1625 15.527 64.7896 15.643 64.4913 15.875C64.193 16.107 63.9676 16.4235 63.8152 16.8246C63.666 17.2256 63.5914 17.678 63.5914 18.1818C63.5914 18.6922 63.6677 19.1513 63.8201 19.5589C63.9726 19.9666 64.198 20.2898 64.4963 20.5284C64.7979 20.7637 65.1691 20.8814 65.6099 20.8814ZM75.9011 18.8331V14.3636H77.3926V22H75.9309V20.6776H75.8514C75.6757 21.0852 75.394 21.425 75.0062 21.6967C74.6217 21.9652 74.1428 22.0994 73.5694 22.0994C73.0789 22.0994 72.6447 21.9917 72.2669 21.7763C71.8923 21.5575 71.5974 21.2344 71.3819 20.8068C71.1698 20.3793 71.0637 19.8506 71.0637 19.2209V14.3636H72.5502V19.0419C72.5502 19.5623 72.6944 19.9766 72.9828 20.2848C73.2711 20.593 73.6457 20.7472 74.1064 20.7472C74.3848 20.7472 74.6615 20.6776 74.9366 20.5384C75.215 20.3991 75.4454 20.1887 75.6277 19.907C75.8133 19.6252 75.9044 19.2673 75.9011 18.8331ZM82.6811 22.1541C81.9287 22.1541 81.2808 21.9934 80.7372 21.6719C80.197 21.3471 79.7794 20.8913 79.4844 20.3047C79.1927 19.7147 79.0469 19.0237 79.0469 18.2315C79.0469 17.4493 79.1927 16.7599 79.4844 16.1634C79.7794 15.5668 80.1903 15.1011 80.7173 14.7663C81.2476 14.4316 81.8674 14.2642 82.5767 14.2642C83.0076 14.2642 83.4252 14.3355 83.8295 14.478C84.2339 14.6205 84.5968 14.8442 84.9183 15.1491C85.2398 15.4541 85.4934 15.8501 85.679 16.3374C85.8646 16.8213 85.9574 17.4096 85.9574 18.1023V18.6293H79.8871V17.5156H84.5007C84.5007 17.1245 84.4212 16.7782 84.2621 16.4766C84.103 16.1716 83.8793 15.9313 83.5909 15.7557C83.3059 15.58 82.9711 15.4922 82.5866 15.4922C82.169 15.4922 81.8045 15.5949 81.4929 15.8004C81.1847 16.0026 80.946 16.2678 80.777 16.5959C80.6113 16.9207 80.5284 17.2737 80.5284 17.6548V18.5249C80.5284 19.0353 80.6179 19.4695 80.7969 19.8274C80.9792 20.1854 81.2327 20.4588 81.5575 20.6477C81.8823 20.8333 82.2618 20.9261 82.696 20.9261C82.9777 20.9261 83.2346 20.8864 83.4666 20.8068C83.6986 20.724 83.8991 20.6013 84.0682 20.4389C84.2372 20.2765 84.3665 20.076 84.456 19.8374L85.8629 20.0909C85.7502 20.5052 85.5481 20.8681 85.2564 21.1797C84.968 21.4879 84.6051 21.7282 84.1676 21.9006C83.7334 22.0696 83.2379 22.1541 82.6811 22.1541ZM89.0932 17.4659V22H87.6067V14.3636H89.0336V15.6065H89.128C89.3037 15.2022 89.5788 14.8774 89.9533 14.6321C90.3311 14.3868 90.8068 14.2642 91.3801 14.2642C91.9005 14.2642 92.3562 14.3736 92.7473 14.5923C93.1384 14.8078 93.4417 15.1293 93.6571 15.5568C93.8726 15.9844 93.9803 16.513 93.9803 17.1428V22H92.4938V17.3217C92.4938 16.7682 92.3496 16.3357 92.0613 16.0241C91.7729 15.7093 91.3768 15.5518 90.873 15.5518C90.5283 15.5518 90.2218 15.6264 89.9533 15.7756C89.6882 15.9247 89.4777 16.1435 89.3219 16.4318C89.1694 16.7169 89.0932 17.0616 89.0932 17.4659ZM99.5385 14.3636V15.5568H95.3674V14.3636H99.5385ZM96.486 12.5341H97.9725V19.7578C97.9725 20.0462 98.0156 20.2633 98.1017 20.4091C98.1879 20.5516 98.2989 20.6494 98.4348 20.7024C98.574 20.7521 98.7248 20.777 98.8873 20.777C99.0066 20.777 99.111 20.7687 99.2005 20.7521C99.29 20.7356 99.3596 20.7223 99.4093 20.7124L99.6777 21.9403C99.5916 21.9735 99.4689 22.0066 99.3098 22.0398C99.1507 22.0762 98.9519 22.0961 98.7132 22.0994C98.3221 22.1061 97.9576 22.0365 97.6195 21.8906C97.2814 21.7448 97.008 21.5194 96.7992 21.2145C96.5904 20.9096 96.486 20.5268 96.486 20.0661V12.5341ZM102.833 11.8182V22H101.347V11.8182H102.833ZM105.773 24.8636C105.551 24.8636 105.349 24.8454 105.166 24.8089C104.984 24.7758 104.848 24.7393 104.759 24.6996L105.117 23.4815C105.388 23.5545 105.63 23.5859 105.843 23.576C106.055 23.5661 106.242 23.4865 106.404 23.3374C106.57 23.1882 106.716 22.9446 106.842 22.6065L107.026 22.0994L104.232 14.3636H105.823L107.757 20.2898H107.836L109.77 14.3636H111.366L108.219 23.0192C108.073 23.4169 107.887 23.7533 107.662 24.0284C107.437 24.3068 107.168 24.5156 106.857 24.6548C106.545 24.794 106.184 24.8636 105.773 24.8636ZM117.447 22H115.817L119.481 11.8182H121.256L124.92 22H123.289L120.411 13.6676H120.331L117.447 22ZM117.721 18.0128H123.011V19.3054H117.721V18.0128ZM131.938 16.228L130.591 16.4666C130.535 16.2943 130.445 16.1302 130.323 15.9744C130.203 15.8187 130.041 15.6911 129.835 15.5916C129.63 15.4922 129.373 15.4425 129.065 15.4425C128.644 15.4425 128.293 15.5369 128.011 15.7259C127.729 15.9115 127.588 16.1518 127.588 16.4467C127.588 16.7019 127.683 16.9074 127.872 17.0632C128.061 17.219 128.365 17.3466 128.786 17.446L129.999 17.7244C130.702 17.8868 131.226 18.1371 131.57 18.4751C131.915 18.8132 132.088 19.2524 132.088 19.7926C132.088 20.25 131.955 20.6577 131.69 21.0156C131.428 21.3703 131.062 21.6487 130.591 21.8509C130.124 22.053 129.582 22.1541 128.965 22.1541C128.11 22.1541 127.413 21.9718 126.872 21.6072C126.332 21.2393 126.001 20.7173 125.878 20.0412L127.315 19.8224C127.404 20.197 127.588 20.4804 127.867 20.6726C128.145 20.8615 128.508 20.956 128.955 20.956C129.443 20.956 129.832 20.8549 130.124 20.6527C130.415 20.4472 130.561 20.197 130.561 19.902C130.561 19.6634 130.472 19.4628 130.293 19.3004C130.117 19.138 129.847 19.0154 129.482 18.9325L128.19 18.6491C127.477 18.4867 126.95 18.2282 126.609 17.8736C126.271 17.5189 126.102 17.0698 126.102 16.5263C126.102 16.0755 126.228 15.6811 126.48 15.343C126.731 15.005 127.079 14.7415 127.524 14.5526C127.968 14.3603 128.477 14.2642 129.05 14.2642C129.875 14.2642 130.525 14.4432 130.999 14.8011C131.473 15.1558 131.786 15.6314 131.938 16.228ZM135.089 19.4098L135.079 17.5952H135.338L138.38 14.3636H140.16L136.69 18.0426H136.456L135.089 19.4098ZM133.722 22V11.8182H135.208V22H133.722ZM138.544 22L135.81 18.3707L136.834 17.3317L140.369 22H138.544ZM144.492 22.1541C143.739 22.1541 143.091 21.9934 142.548 21.6719C142.008 21.3471 141.59 20.8913 141.295 20.3047C141.003 19.7147 140.857 19.0237 140.857 18.2315C140.857 17.4493 141.003 16.7599 141.295 16.1634C141.59 15.5668 142.001 15.1011 142.528 14.7663C143.058 14.4316 143.678 14.2642 144.387 14.2642C144.818 14.2642 145.236 14.3355 145.64 14.478C146.044 14.6205 146.407 14.8442 146.729 15.1491C147.05 15.4541 147.304 15.8501 147.49 16.3374C147.675 16.8213 147.768 17.4096 147.768 18.1023V18.6293H141.698V17.5156H146.311C146.311 17.1245 146.232 16.7782 146.073 16.4766C145.914 16.1716 145.69 15.9313 145.401 15.7557C145.116 15.58 144.782 15.4922 144.397 15.4922C143.98 15.4922 143.615 15.5949 143.303 15.8004C142.995 16.0026 142.757 16.2678 142.588 16.5959C142.422 16.9207 142.339 17.2737 142.339 17.6548V18.5249C142.339 19.0353 142.428 19.4695 142.607 19.8274C142.79 20.1854 143.043 20.4588 143.368 20.6477C143.693 20.8333 144.072 20.9261 144.507 20.9261C144.788 20.9261 145.045 20.8864 145.277 20.8068C145.509 20.724 145.71 20.6013 145.879 20.4389C146.048 20.2765 146.177 20.076 146.267 19.8374L147.673 20.0909C147.561 20.5052 147.359 20.8681 147.067 21.1797C146.779 21.4879 146.416 21.7282 145.978 21.9006C145.544 22.0696 145.048 22.1541 144.492 22.1541ZM152.276 22.1491C151.659 22.1491 151.109 21.9917 150.625 21.6768C150.145 21.3587 149.767 20.9062 149.492 20.3196C149.22 19.7296 149.084 19.022 149.084 18.1967C149.084 17.3714 149.222 16.6655 149.497 16.0788C149.775 15.4922 150.156 15.0431 150.64 14.7315C151.124 14.42 151.673 14.2642 152.286 14.2642C152.76 14.2642 153.141 14.3438 153.429 14.5028C153.721 14.6586 153.946 14.8409 154.105 15.0497C154.268 15.2585 154.394 15.4425 154.483 15.6016H154.573V11.8182H156.059V22H154.608V20.8118H154.483C154.394 20.9742 154.265 21.1598 154.096 21.3686C153.93 21.5774 153.701 21.7597 153.409 21.9155C153.118 22.0713 152.74 22.1491 152.276 22.1491ZM152.604 20.8814C153.032 20.8814 153.393 20.7687 153.688 20.5433C153.986 20.3146 154.212 19.9981 154.364 19.5938C154.52 19.1894 154.598 18.7187 154.598 18.1818C154.598 17.6515 154.521 17.1875 154.369 16.7898C154.217 16.392 153.993 16.0821 153.698 15.8601C153.403 15.638 153.038 15.527 152.604 15.527C152.157 15.527 151.784 15.643 151.485 15.875C151.187 16.107 150.962 16.4235 150.809 16.8246C150.66 17.2256 150.586 17.678 150.586 18.1818C150.586 18.6922 150.662 19.1513 150.814 19.5589C150.967 19.9666 151.192 20.2898 151.49 20.5284C151.792 20.7637 152.163 20.8814 152.604 20.8814ZM165.749 18.6989H167.26L168.324 20.0859L168.826 20.7024L170.522 22.9148H168.951L167.817 21.4382L167.429 20.9013L165.749 18.6989ZM170.85 16.9091C170.85 17.9962 170.651 18.9309 170.253 19.7131C169.855 20.492 169.31 21.0919 168.618 21.5128C167.928 21.9304 167.144 22.1392 166.266 22.1392C165.384 22.1392 164.597 21.9304 163.904 21.5128C163.215 21.0919 162.672 20.4903 162.274 19.7081C161.876 18.9259 161.677 17.9929 161.677 16.9091C161.677 15.822 161.876 14.889 162.274 14.1101C162.672 13.3279 163.215 12.728 163.904 12.3104C164.597 11.8894 165.384 11.679 166.266 11.679C167.144 11.679 167.928 11.8894 168.618 12.3104C169.31 12.728 169.855 13.3279 170.253 14.1101C170.651 14.889 170.85 15.822 170.85 16.9091ZM169.328 16.9091C169.328 16.0805 169.194 15.3828 168.926 14.8161C168.661 14.246 168.296 13.8151 167.832 13.5234C167.371 13.2285 166.849 13.081 166.266 13.081C165.679 13.081 165.156 13.2285 164.695 13.5234C164.234 13.8151 163.87 14.246 163.601 14.8161C163.336 15.3828 163.203 16.0805 163.203 16.9091C163.203 17.7377 163.336 18.437 163.601 19.0071C163.87 19.5739 164.234 20.0047 164.695 20.2997C165.156 20.5914 165.679 20.7372 166.266 20.7372C166.849 20.7372 167.371 20.5914 167.832 20.2997C168.296 20.0047 168.661 19.5739 168.926 19.0071C169.194 18.437 169.328 17.7377 169.328 16.9091ZM177.483 18.8331V14.3636H178.975V22H177.513V20.6776H177.433C177.258 21.0852 176.976 21.425 176.588 21.6967C176.204 21.9652 175.725 22.0994 175.151 22.0994C174.661 22.0994 174.227 21.9917 173.849 21.7763C173.474 21.5575 173.179 21.2344 172.964 20.8068C172.752 20.3793 172.646 19.8506 172.646 19.2209V14.3636H174.132V19.0419C174.132 19.5623 174.276 19.9766 174.565 20.2848C174.853 20.593 175.228 20.7472 175.688 20.7472C175.967 20.7472 176.244 20.6776 176.519 20.5384C176.797 20.3991 177.027 20.1887 177.21 19.907C177.395 19.6252 177.486 19.2673 177.483 18.8331ZM184.263 22.1541C183.511 22.1541 182.863 21.9934 182.319 21.6719C181.779 21.3471 181.361 20.8913 181.066 20.3047C180.775 19.7147 180.629 19.0237 180.629 18.2315C180.629 17.4493 180.775 16.7599 181.066 16.1634C181.361 15.5668 181.772 15.1011 182.299 14.7663C182.83 14.4316 183.449 14.2642 184.159 14.2642C184.59 14.2642 185.007 14.3355 185.412 14.478C185.816 14.6205 186.179 14.8442 186.5 15.1491C186.822 15.4541 187.075 15.8501 187.261 16.3374C187.447 16.8213 187.539 17.4096 187.539 18.1023V18.6293H181.469V17.5156H186.083C186.083 17.1245 186.003 16.7782 185.844 16.4766C185.685 16.1716 185.461 15.9313 185.173 15.7557C184.888 15.58 184.553 15.4922 184.169 15.4922C183.751 15.4922 183.386 15.5949 183.075 15.8004C182.767 16.0026 182.528 16.2678 182.359 16.5959C182.193 16.9207 182.11 17.2737 182.11 17.6548V18.5249C182.11 19.0353 182.2 19.4695 182.379 19.8274C182.561 20.1854 182.815 20.4588 183.14 20.6477C183.464 20.8333 183.844 20.9261 184.278 20.9261C184.56 20.9261 184.817 20.8864 185.049 20.8068C185.281 20.724 185.481 20.6013 185.65 20.4389C185.819 20.2765 185.949 20.076 186.038 19.8374L187.445 20.0909C187.332 20.5052 187.13 20.8681 186.838 21.1797C186.55 21.4879 186.187 21.7282 185.75 21.9006C185.315 22.0696 184.82 22.1541 184.263 22.1541ZM194.911 16.228L193.564 16.4666C193.507 16.2943 193.418 16.1302 193.295 15.9744C193.176 15.8187 193.014 15.6911 192.808 15.5916C192.603 15.4922 192.346 15.4425 192.037 15.4425C191.617 15.4425 191.265 15.5369 190.983 15.7259C190.702 15.9115 190.561 16.1518 190.561 16.4467C190.561 16.7019 190.655 16.9074 190.844 17.0632C191.033 17.219 191.338 17.3466 191.759 17.446L192.972 17.7244C193.675 17.8868 194.198 18.1371 194.543 18.4751C194.888 18.8132 195.06 19.2524 195.06 19.7926C195.06 20.25 194.928 20.6577 194.662 21.0156C194.401 21.3703 194.034 21.6487 193.564 21.8509C193.096 22.053 192.555 22.1541 191.938 22.1541C191.083 22.1541 190.385 21.9718 189.845 21.6072C189.305 21.2393 188.973 20.7173 188.851 20.0412L190.287 19.8224C190.377 20.197 190.561 20.4804 190.839 20.6726C191.118 20.8615 191.481 20.956 191.928 20.956C192.415 20.956 192.805 20.8549 193.096 20.6527C193.388 20.4472 193.534 20.197 193.534 19.902C193.534 19.6634 193.444 19.4628 193.265 19.3004C193.09 19.138 192.82 19.0154 192.455 18.9325L191.162 18.6491C190.45 18.4867 189.923 18.2282 189.581 17.8736C189.243 17.5189 189.074 17.0698 189.074 16.5263C189.074 16.0755 189.2 15.6811 189.452 15.343C189.704 15.005 190.052 14.7415 190.496 14.5526C190.94 14.3603 191.449 14.2642 192.023 14.2642C192.848 14.2642 193.497 14.4432 193.971 14.8011C194.445 15.1558 194.759 15.6314 194.911 16.228ZM200.259 14.3636V15.5568H196.088V14.3636H200.259ZM197.207 12.5341H198.693V19.7578C198.693 20.0462 198.736 20.2633 198.822 20.4091C198.909 20.5516 199.02 20.6494 199.156 20.7024C199.295 20.7521 199.446 20.777 199.608 20.777C199.727 20.777 199.832 20.7687 199.921 20.7521C200.011 20.7356 200.08 20.7223 200.13 20.7124L200.398 21.9403C200.312 21.9735 200.19 22.0066 200.031 22.0398C199.871 22.0762 199.673 22.0961 199.434 22.0994C199.043 22.1061 198.678 22.0365 198.34 21.8906C198.002 21.7448 197.729 21.5194 197.52 21.2145C197.311 20.9096 197.207 20.5268 197.207 20.0661V12.5341ZM201.904 22V14.3636H203.39V22H201.904ZM202.654 13.1854C202.396 13.1854 202.174 13.0992 201.988 12.9268C201.806 12.7512 201.715 12.5424 201.715 12.3004C201.715 12.0552 201.806 11.8464 201.988 11.674C202.174 11.4983 202.396 11.4105 202.654 11.4105C202.913 11.4105 203.133 11.4983 203.316 11.674C203.501 11.8464 203.594 12.0552 203.594 12.3004C203.594 12.5424 203.501 12.7512 203.316 12.9268C203.133 13.0992 202.913 13.1854 202.654 13.1854ZM208.607 22.1541C207.891 22.1541 207.266 21.9901 206.732 21.6619C206.199 21.3338 205.784 20.8748 205.489 20.2848C205.194 19.6948 205.047 19.0054 205.047 18.2166C205.047 17.4245 205.194 16.7318 205.489 16.1385C205.784 15.5452 206.199 15.0845 206.732 14.7564C207.266 14.4283 207.891 14.2642 208.607 14.2642C209.322 14.2642 209.947 14.4283 210.481 14.7564C211.014 15.0845 211.429 15.5452 211.724 16.1385C212.019 16.7318 212.166 17.4245 212.166 18.2166C212.166 19.0054 212.019 19.6948 211.724 20.2848C211.429 20.8748 211.014 21.3338 210.481 21.6619C209.947 21.9901 209.322 22.1541 208.607 22.1541ZM208.612 20.9062C209.076 20.9062 209.46 20.7836 209.765 20.5384C210.07 20.2931 210.295 19.9666 210.441 19.5589C210.59 19.1513 210.665 18.7022 210.665 18.2116C210.665 17.7244 210.59 17.277 210.441 16.8693C210.295 16.4583 210.07 16.1286 209.765 15.88C209.46 15.6314 209.076 15.5071 208.612 15.5071C208.144 15.5071 207.756 15.6314 207.448 15.88C207.143 16.1286 206.916 16.4583 206.767 16.8693C206.621 17.277 206.548 17.7244 206.548 18.2116C206.548 18.7022 206.621 19.1513 206.767 19.5589C206.916 19.9666 207.143 20.2931 207.448 20.5384C207.756 20.7836 208.144 20.9062 208.612 20.9062ZM215.312 17.4659V22H213.825V14.3636H215.252V15.6065H215.347C215.522 15.2022 215.798 14.8774 216.172 14.6321C216.55 14.3868 217.026 14.2642 217.599 14.2642C218.119 14.2642 218.575 14.3736 218.966 14.5923C219.357 14.8078 219.66 15.1293 219.876 15.5568C220.091 15.9844 220.199 16.513 220.199 17.1428V22H218.713V17.3217C218.713 16.7682 218.568 16.3357 218.28 16.0241C217.992 15.7093 217.596 15.5518 217.092 15.5518C216.747 15.5518 216.441 15.6264 216.172 15.7756C215.907 15.9247 215.696 16.1435 215.541 16.4318C215.388 16.7169 215.312 17.0616 215.312 17.4659ZM227.915 16.228L226.568 16.4666C226.511 16.2943 226.422 16.1302 226.299 15.9744C226.18 15.8187 226.017 15.6911 225.812 15.5916C225.606 15.4922 225.35 15.4425 225.041 15.4425C224.62 15.4425 224.269 15.5369 223.987 15.7259C223.706 15.9115 223.565 16.1518 223.565 16.4467C223.565 16.7019 223.659 16.9074 223.848 17.0632C224.037 17.219 224.342 17.3466 224.763 17.446L225.976 17.7244C226.679 17.8868 227.202 18.1371 227.547 18.4751C227.892 18.8132 228.064 19.2524 228.064 19.7926C228.064 20.25 227.932 20.6577 227.666 21.0156C227.405 21.3703 227.038 21.6487 226.568 21.8509C226.1 22.053 225.558 22.1541 224.942 22.1541C224.087 22.1541 223.389 21.9718 222.849 21.6072C222.309 21.2393 221.977 20.7173 221.855 20.0412L223.291 19.8224C223.381 20.197 223.565 20.4804 223.843 20.6726C224.122 20.8615 224.485 20.956 224.932 20.956C225.419 20.956 225.809 20.8549 226.1 20.6527C226.392 20.4472 226.538 20.197 226.538 19.902C226.538 19.6634 226.448 19.4628 226.269 19.3004C226.094 19.138 225.824 19.0154 225.459 18.9325L224.166 18.6491C223.454 18.4867 222.927 18.2282 222.585 17.8736C222.247 17.5189 222.078 17.0698 222.078 16.5263C222.078 16.0755 222.204 15.6811 222.456 15.343C222.708 15.005 223.056 14.7415 223.5 14.5526C223.944 14.3603 224.453 14.2642 225.026 14.2642C225.852 14.2642 226.501 14.4432 226.975 14.8011C227.449 15.1558 227.762 15.6314 227.915 16.228Z" fill="#111111"/>
</svg>
